The Mortician (2011) 1080p MKV x264 AC3+DTS NL Subs
.
[IMG]http://img804.imageshack.us/img804/9408/piwt6.jpg[/IMG]
.
Verenigd Koninkrijk
Thriller
89 minuten

geregisseerd door Gareth Maxwell Roberts
met Method Man, Dash Mihok en E.J. Bonilla

Een vervreemde en koude begrafenisondernemer voelt zich bedreigd door zijn nieuwe medewerker Noah, die de beruchte gangster Carver mee het mortuarium inbrengt. De interesse van de begrafenisondernemer wordt gewekt als hij een tatoeage ontdekt bij het vermoorde meisje Jenny, maar hij wordt geterroriseerd met enge dromen uit zijn kindertijd. Wanneer het bange jongetje Kane in het mortuarium terecht komt, beginnen de problemen.
. 
http://www.moviemeter.nl/film/70195
.
PLOT
.
When a mortician confronts a boy hiding out in his morgue past emotions are triggered and he is determined to help the boy flee from danger killing anyone who stands in the way. 
. 
http://www.imdb.com/title/tt1211353/
.
INFO
.
NL Vertaling: QoQ-Team
.
Format                           : Matroska
Format version                   : Version 2
File size                        : 8.35 GiB
Duration                         : 1h 29mn
Overall bit rate                 : 13.4 Mbps
Encoded date                     : UTC 2012-02-22 07:35:23
Writing application              : mkvmerge v5.2.0 ('I can't explain') built on Dec 18 2011 18:12:03
Writing library                  : libebml v1.2.3 + libmatroska v1.3.0

Video
ID                               : 1
Format                           : AVC
Format/Info                      : Advanced Video Codec
Format profile                   : High@L4.1
Format settings, CABAC           : Yes
Format settings, ReFrames        : 4 frames
Codec ID                         : V_MPEG4/ISO/AVC
Duration                         : 1h 29mn
Bit rate                         : 11.3 Mbps
Width                            : 1 920 pixels
Height                           : 816 pixels
Display aspect ratio             : 2.35:1
Frame rate                       : 23.976 fps
Color space                      : YUV
Chroma subsampling               : 4:2:0
Bit depth                        : 8 bits
Scan type                        : Progressive
Bits/(Pixel*Frame)               : 0.300
Stream size                      : 6.84 GiB (82%)
Title                            : The.Mortician.2011.Blu-ray.1080p.x264.DTS.MySilu
Writing library                  : x264 core 119 r2106 07efeb4
Encoding settings                : cabac=1 / ref=4 / deblock=1:-2:-2 / analyse=0x3:0x113 / me=umh / subme=10 / psy=1 / psy_rd=1.20:0.20 / mixed_ref=1 / me_range=32 / chroma_me=1 / trellis=2 / 8x8dct=1 / cqm=0 / deadzone=21,11 / fast_pskip=0 / chroma_qp_offset=-3 / threads=6 / sliced_threads=0 / nr=0 / decimate=0 / interlaced=0 / bluray_compat=0 / constrained_intra=0 / bframes=5 / b_pyramid=2 / b_adapt=2 / b_bias=0 / direct=3 / weightb=1 / open_gop=0 / weightp=2 / keyint=250 / keyint_min=2 / scenecut=40 / intra_refresh=0 / rc_lookahead=72 / rc=2pass / mbtree=1 / bitrate=11264 / ratetol=1.0 / qcomp=0.60 / qpmin=10 / qpmax=51 / qpstep=4 / cplxblur=20.0 / qblur=0.5 / vbv_maxrate=38000 / vbv_bufsize=38000 / nal_hrd=none / ip_ratio=1.40 / aq=1:1.00
Language                         : English
Default                          : Yes
Forced                           : No

Audio #1
ID                               : 2
Format                           : DTS
Format/Info                      : Digital Theater Systems
Codec ID                         : A_DTS
Duration                         : 1h 29mn
Bit rate mode                    : Constant
Bit rate                         : 1 510 Kbps
Channel(s)                       : 6 channels
Channel positions                : Front: L C R, Side: L R, LFE
Sampling rate                    : 48.0 KHz
Bit depth                        : 16 bits
Compression mode                 : Lossy
Stream size                      : 962 MiB (11%)
Title                            : DTS
Language                         : English
Default                          : Yes
Forced                           : Yes

Audio #2
ID                               : 3
Format                           : AC-3
Format/Info                      : Audio Coding 3
Mode extension                   : CM (complete main)
Codec ID                         : A_AC3
Duration                         : 1h 29mn
Bit rate mode                    : Constant
Bit rate                         : 640 Kbps
Channel(s)                       : 6 channels
Channel positions                : Front: L C R, Side: L R, LFE
Sampling rate                    : 48.0 KHz
Bit depth                        : 16 bits
Compression mode                 : Lossy
Stream size                      : 408 MiB (5%)
Title                            : AC3
Language                         : English
Default                          : No
Forced                           : No

Text
ID                               : 4
Format                           : UTF-8
Codec ID                         : S_TEXT/UTF8
Codec ID/Info                    : UTF-8 Plain Text
Title                            : Nederlands QoQ-Team
Language                         : Dutch
Default                          : Yes
Forced                           : No
.
Enjoy
